# xmcd CD database file
#
# Track frame offsets:
#	150
#	19312
#	37625
#	58615
#	76452
#
# Disc length: 1252 seconds
#
# Revision: 1
# Processed by: cddbd v1.5PL3 Copyright (c) Steve Scherf et al.
# Submitted via: CDex 1.51
#
DISCID=3104e205
DTITLE=ぽぽたん - It's A PopoTime!
DYEAR=2003
DGENRE=Vocal
TTITLE0=あいのせかい
TTITLE1=Endless Trip
TTITLE2=まほーしょーじょ☆みいタン参上！！
TTITLE3=POPOTAN KISS
TTITLE4=ぽぽらじのうた
EXTD=YEAR: 2003
EXTT0=
EXTT1=
EXTT2=
EXTT3=
EXTT4=
PLAYORDER=
